<svg width="357" height="495" viewBox="0 0 357 495" fill="none" xmlns="http://www.w3.org/2000/svg">
<path d="M48.6 413.2C40.6 413.2 33.4 411.48 27 408.04C20.68 404.52 15.68 399.52 12 393.04C8.4 386.48 6.6 378.84 6.6 370.12C6.6 361.4 8.4 353.8 12 347.32C15.68 340.76 20.68 335.76 27 332.32C33.4 328.8 40.6 327.04 48.6 327.04C54.04 327.04 58.88 327.68 63.12 328.96C67.44 330.24 71.72 332.08 75.96 334.48C77.72 335.44 78.6 336.96 78.6 339.04C78.6 340.24 78.16 341.32 77.28 342.28C76.4 343.16 75.24 343.6 73.8 343.6C73 343.6 72.28 343.44 71.64 343.12C68.12 341.28 64.68 339.88 61.32 338.92C57.96 337.96 54.08 337.48 49.68 337.48C42.8 337.48 36.92 338.92 32.04 341.8C27.24 344.6 23.6 348.48 21.12 353.44C18.72 358.32 17.52 363.88 17.52 370.12C17.52 376.36 18.72 381.96 21.12 386.92C23.6 391.8 27.24 395.68 32.04 398.56C36.92 401.36 42.8 402.76 49.68 402.76C54.08 402.76 57.96 402.28 61.32 401.32C64.68 400.36 68.12 398.96 71.64 397.12C72.28 396.8 73 396.64 73.8 396.64C75.24 396.64 76.4 397.08 77.28 397.96C78.16 398.84 78.6 399.92 78.6 401.2C78.6 403.28 77.72 404.8 75.96 405.76C71.72 408.16 67.44 410 63.12 411.28C58.88 412.56 54.04 413.2 48.6 413.2ZM100.478 412.6C98.9575 412.6 97.6775 412.08 96.6375 411.04C95.5975 410 95.0775 408.72 95.0775 407.2V333.76C95.0775 332.24 95.5975 330.96 96.6375 329.92C97.6775 328.8 98.9575 328.24 100.478 328.24H128.438C139.318 328.24 147.478 330.48 152.918 334.96C158.358 339.44 161.078 345.32 161.078 352.6C161.078 357.4 159.718 361.8 156.998 365.8C154.358 369.72 150.478 372.56 145.358 374.32C151.118 375.84 155.038 379.44 157.118 385.12C159.278 390.72 160.358 396.24 160.358 401.68V407.2C160.358 408.72 159.838 410 158.798 411.04C157.758 412.08 156.478 412.6 154.958 412.6C153.278 412.6 151.918 412.12 150.878 411.16C149.918 410.12 149.438 408.8 149.438 407.2V403.6C149.438 399.6 149.078 395.92 148.358 392.56C147.638 389.12 145.918 386.08 143.198 383.44C140.478 380.72 136.358 379.36 130.838 379.36H105.998V407.2C105.998 408.72 105.438 410 104.318 411.04C103.278 412.08 101.998 412.6 100.478 412.6ZM127.718 369.04C134.598 369.04 140.038 367.68 144.037 364.96C148.118 362.24 150.158 358.4 150.158 353.44C150.158 348.64 148.398 344.96 144.878 342.4C141.438 339.84 135.518 338.56 127.118 338.56H105.998V369.04H127.718ZM207.267 412.6C205.747 412.6 204.427 412.08 203.307 411.04C202.267 410 201.747 408.72 201.747 407.2V376.6L173.067 336.4C172.427 335.36 172.107 334.28 172.107 333.16C172.107 331.64 172.587 330.36 173.547 329.32C174.587 328.2 175.867 327.64 177.387 327.64C179.387 327.64 180.987 328.56 182.187 330.4L207.267 366.88L232.347 330.4C233.547 328.56 235.147 327.64 237.147 327.64C238.667 327.64 239.947 328.2 240.987 329.32C242.027 330.36 242.507 331.64 242.427 333.16C242.427 334.28 242.107 335.36 241.467 336.4L212.667 376.6V407.2C212.667 408.72 212.147 410 211.107 411.04C210.067 412.08 208.787 412.6 207.267 412.6ZM290.595 413.2C282.195 413.2 274.835 411.36 268.515 407.68C262.195 404 257.315 398.92 253.875 392.44C250.435 385.96 248.635 378.52 248.475 370.12C248.635 361.72 250.435 354.28 253.875 347.8C257.315 341.32 262.195 336.24 268.515 332.56C274.835 328.88 282.195 327.04 290.595 327.04C298.995 327.04 306.315 328.88 312.555 332.56C318.875 336.24 323.755 341.36 327.195 347.92C330.715 354.4 332.555 361.8 332.715 370.12C332.555 378.44 330.715 385.88 327.195 392.44C323.755 398.92 318.875 404 312.555 407.68C306.315 411.36 298.995 413.2 290.595 413.2ZM290.595 403C296.995 403 302.555 401.56 307.275 398.68C311.995 395.8 315.595 391.88 318.075 386.92C320.555 381.96 321.795 376.36 321.795 370.12C321.795 363.88 320.555 358.28 318.075 353.32C315.595 348.36 311.995 344.44 307.275 341.56C302.555 338.68 296.995 337.24 290.595 337.24C284.115 337.24 278.515 338.68 273.795 341.56C269.155 344.44 265.595 348.36 263.115 353.32C260.635 358.28 259.395 363.88 259.395 370.12C259.395 376.36 260.635 381.96 263.115 386.92C265.595 391.88 269.155 395.8 273.795 398.68C278.515 401.56 284.115 403 290.595 403Z" fill="#0C43AA"/>
<path fill-rule="evenodd" clip-rule="evenodd" d="M165.15 0.656349C162.682 1.96683 161.215 5.90787 160.823 12.2842C160.629 15.4286 160.353 18.0009 160.21 18.0009C160.067 18.0009 157.851 16.8863 155.286 15.5252C147.651 11.4711 141.609 12.3178 137.852 17.968C133.725 24.1752 137.211 28.7012 153.262 37.9794C160.687 42.2712 160.687 42.2712 160.505 57.3667C160.324 72.4616 160.324 72.4616 158.764 72.6856C157.906 72.8089 154.712 71.693 151.667 70.2058C148.621 68.7185 144.876 67.2868 143.343 67.0244C137.267 65.9845 132.679 70.2489 128.894 80.4526C127.379 84.5382 126.129 86.9077 125.416 87.0461C124.1 87.303 109.037 72.502 106.33 68.2924C104.529 65.4934 104.529 65.4934 106.268 58.3594C108.595 48.8072 109.195 39.6146 107.683 36.6525C106.075 33.5013 103.123 32.1675 98.5954 32.5484C93.3396 32.9896 91.0943 35.5694 89.0119 43.5591C87.4695 49.4771 87.4695 49.4771 83.4979 45.7505C78.935 41.469 75.7238 40.212 71.1297 40.91C66.8635 41.5587 64.045 44.155 63.5502 47.8913C63.0264 51.8522 64.1714 54.78 68.074 59.4582C69.9273 61.6797 71.4433 63.7143 71.4433 63.9801C71.4433 64.2466 69.3906 65.2611 66.881 66.236C64.3714 67.2108 61.3427 68.613 60.1491 69.3515C57.7828 70.8175 55.2218 75.2148 55.2218 77.8131C55.2218 81.5836 60.996 87.19 64.879 87.19C65.9915 87.19 71.905 85.9117 78.0205 84.3484C89.139 81.5076 89.139 81.5076 99.8925 92.3901C105.807 98.3753 110.645 103.465 110.645 103.7C110.645 103.936 107.982 105.094 104.726 106.275C95.4836 109.625 90.6043 113.433 89.4458 118.199C88.9375 120.29 91.2112 127.775 94.4799 134.776C95.5295 137.023 96.273 138.978 96.1324 139.12C95.9912 139.263 89.2241 139.55 81.0931 139.759C66.3106 140.138 66.3106 140.138 63.1176 134.387C57.7686 124.75 52.3945 117.249 49.8147 115.819C44.6893 112.979 38.9287 115.601 36.5759 121.845C35.2788 125.288 35.7804 127.41 39.5255 134.319C40.8117 136.692 41.6877 138.813 41.4721 139.031C41.2565 139.25 38.3481 139.624 35.0085 139.863C28.1914 140.353 26.0055 141.458 23.9265 145.467C22.4598 148.294 22.7639 152.375 24.6301 154.908C27.2458 158.459 29.2857 159.406 35.3485 159.883C38.5137 160.132 41.2409 160.476 41.4092 160.648C41.5782 160.819 40.4968 163.595 39.0064 166.819C35.2687 174.903 35.2592 178.197 38.9638 181.769C43.6126 186.251 48.1026 186.164 52.3229 181.51C53.7531 179.933 56.8271 175.406 59.1549 171.45C66.149 159.562 63.4941 160.865 81.2039 160.624C90.6813 160.495 96.4515 160.666 96.4515 161.077C96.4515 161.44 95.0233 164.731 93.2781 168.39C88.1447 179.152 88.6104 184.962 94.9125 188.774C96.2893 189.607 100.317 191.583 103.862 193.164C107.407 194.745 110.3 196.287 110.29 196.589C110.282 196.892 105.491 201.904 99.6458 207.728C89.0173 218.317 89.0173 218.317 85.8068 217.407C67.1987 212.132 63.2014 211.595 59.5185 213.87C56.5486 215.706 54.7264 221.191 55.8376 224.95C56.9109 228.582 62.8473 232.85 68.5633 234.1C69.7671 234.363 70.908 234.835 71.0993 235.148C71.2899 235.461 70.2328 237.273 68.7506 239.174C64.2626 244.928 63.338 246.863 63.3353 250.507C63.3326 253.536 63.5982 254.123 66.0314 256.469C71.2656 261.515 76.7633 260.787 83.1181 254.204C85.2985 251.945 87.1822 250.204 87.3025 250.334C87.4235 250.465 88.1745 252.73 88.972 255.367C92.1832 265.99 98.2392 270.481 104.301 266.735C106.581 265.326 109.301 260.402 109.281 257.72C109.275 256.803 108.24 251.274 106.981 245.434C104.694 234.816 104.694 234.816 106.428 231.734C107.381 230.038 111.913 224.836 116.498 220.173C123.377 213.179 125.007 211.841 125.814 212.519C126.352 212.972 127.772 216.117 128.968 219.508C132.907 230.667 136.541 233.867 143.589 232.384C147.224 231.619 157.45 227.534 159.007 226.224C159.428 225.87 159.972 225.783 160.217 226.031C160.462 226.279 160.657 233.443 160.651 241.952C160.64 257.423 160.64 257.423 153.718 261.294C136.068 271.167 132.949 276.383 139.986 284.26C142.626 287.216 143.199 287.538 145.703 287.472C147.455 287.425 150.638 286.35 154.3 284.569C157.498 283.014 160.238 281.741 160.389 281.741C160.539 281.741 160.669 283.668 160.678 286.023C160.699 291.726 161.566 295.211 163.477 297.286C167.239 301.368 171.967 302.135 176.135 299.339C179.448 297.117 180.936 293.869 180.948 288.831C180.965 281.363 180.851 281.433 187.567 284.699C194.547 288.094 197.319 288.306 200.686 285.704C205.915 281.661 206.735 274.642 202.472 270.414C201.223 269.176 196.552 266.079 192.091 263.531C187.63 260.983 183.296 258.483 182.459 257.974C180.953 257.057 180.938 256.903 180.938 241.235C180.938 228.853 181.122 225.498 181.783 225.774C182.248 225.968 185.495 227.429 189 229.019C193.444 231.036 196.626 232.013 199.52 232.248C206.671 232.83 209.075 230.561 213.008 219.516C215.758 211.791 216.341 211.498 220.98 215.514C225.401 219.342 234.974 230.311 236.274 233.039C237.1 234.77 236.971 236.027 235.091 244.594C231.98 258.773 232.304 262.186 237.151 266.32C242.332 270.738 249.549 266.174 252.583 256.559C253.385 254.02 254.177 251.511 254.343 250.983C254.548 250.338 255.439 250.964 257.075 252.9C260.158 256.551 265.694 259.809 268.805 259.802C272.069 259.796 276.332 257.2 277.792 254.33C279.985 250.018 278.401 244.977 273.024 239.15C271.334 237.32 270.074 235.718 270.224 235.591C270.372 235.464 272.776 234.495 275.564 233.437C282.432 230.833 286.378 226.986 286.378 222.896C286.378 213.496 280.369 210.663 267.791 214.135C264.445 215.06 259.653 216.387 257.142 217.084C252.577 218.353 252.577 218.353 241.766 207.411C235.82 201.394 230.961 196.312 230.968 196.12C230.975 195.926 233.762 194.69 237.16 193.371C248.283 189.055 252.583 185.43 252.583 180.368C252.583 177.646 250.498 171.403 247.51 165.182C246.211 162.477 245.149 160.125 245.149 159.956C245.149 159.787 251.459 159.776 259.173 159.931C274.924 160.248 276.086 160.548 279.072 165.065C280.023 166.505 282.482 170.611 284.535 174.19C286.589 177.769 289.012 181.399 289.919 182.256C293.449 185.588 299.086 185.48 302.66 182.01C306.913 177.88 306.868 172.061 302.531 165.26C301.043 162.927 299.972 160.869 300.151 160.688C300.329 160.506 303.22 160.128 306.573 159.847C311.704 159.416 313.048 159.042 315.061 157.487C316.375 156.47 317.814 154.957 318.258 154.125C319.415 151.951 319.178 146.607 317.831 144.524C316.185 141.976 311.61 139.938 307.54 139.938C305.659 139.938 303.196 139.75 302.066 139.522C300.012 139.105 300.012 139.105 302.996 132.892C306.359 125.888 306.651 123.33 304.458 120.065C301.99 116.39 299.545 114.934 295.835 114.934C293.108 114.934 292.19 115.283 290.425 116.989C288.273 119.07 279.275 132.954 277.147 137.477C275.99 139.938 275.99 139.938 260.497 139.938C248.369 139.938 245.079 139.752 245.349 139.082C245.539 138.611 247.136 134.835 248.898 130.69C252.833 121.433 253.303 118.332 251.277 115.009C249.35 111.849 244.071 108.575 236.811 106.037C233.59 104.911 230.955 103.829 230.955 103.631C230.955 103.434 235.745 98.4404 241.6 92.5347C252.245 81.7966 252.245 81.7966 264.005 84.4937C270.474 85.9768 276.588 87.19 277.592 87.19C280.059 87.19 283.591 84.6348 285.168 81.7096C286.761 78.7551 286.476 74.4599 284.501 71.6491C282.789 69.2118 277.881 66.6648 273.737 66.0647C272.015 65.8147 270.493 65.2653 270.355 64.8426C270.216 64.4206 271.508 62.4169 273.226 60.3905C274.944 58.3642 276.755 55.924 277.251 54.9691C282.132 45.5628 274.035 37.4533 264.255 41.9533C262.682 42.6774 259.901 44.6853 258.076 46.4157C254.757 49.5614 254.757 49.5614 253.264 44.5791C252.443 41.8382 251.209 38.4788 250.521 37.1135C247.335 30.7831 237.207 30.8899 233.942 37.2875C232.478 40.1572 232.901 45.7416 235.396 56.4776C236.552 61.453 237.06 65.0844 236.767 66.2709C236.207 68.5288 218.254 87.19 216.641 87.19C215.889 87.19 214.791 85.2143 213.118 80.8533C210.068 72.9035 208.562 70.4072 205.784 68.6905C202.141 66.4387 197.928 66.8785 189.428 70.3976C185.362 72.0814 181.864 73.2864 181.656 73.0754C181.447 72.8644 181.276 65.8797 181.276 57.5544C181.276 42.4171 181.276 42.4171 188.94 37.8767C203.131 29.4678 206.912 25.4404 205.291 20.4616C204.544 18.168 201.305 14.6284 198.725 13.2878C195.348 11.5327 190.294 12.9124 183.983 17.3145C180.938 19.4367 180.938 19.4367 180.934 14.0948C180.93 7.79516 180.081 4.24048 178.034 1.95245C176.77 0.539207 175.805 0.250805 171.65 0.0452931C168.603 -0.105416 166.149 0.125443 165.15 0.656349ZM146.583 91.7722C146.224 92.4545 144.873 95.6756 143.58 98.9295C141.228 104.846 141.228 104.846 150.945 114.677L160.662 124.507V110.442C160.662 96.3764 160.662 96.3764 154.483 93.667C151.084 92.1771 148.063 90.8618 147.77 90.7446C147.476 90.6275 146.942 91.0899 146.583 91.7722ZM191.753 91.777C191.195 91.9798 188.534 93.1758 185.839 94.435C180.938 96.7237 180.938 96.7237 180.97 110.966L181.001 125.21L189.588 116.208C194.31 111.257 198.674 106.325 199.286 105.248C200.346 103.38 200.321 103.129 198.756 99.8632C197.854 97.9794 196.773 95.2823 196.355 93.8691C195.591 91.2899 194.48 90.7851 191.753 91.777ZM120.446 121.889C112.982 125.155 112.893 125.275 114.571 129.762C118.686 140.768 117.199 139.938 132.804 139.938H146.789L136.667 129.662C131.101 124.011 126.39 119.417 126.2 119.454C126.009 119.492 123.42 120.587 120.446 121.889ZM204.829 129.768L194.811 139.938H209.063C225.109 139.938 222.989 141.113 227.281 129.843C228.909 125.571 228.909 125.571 226.232 124.186C224.759 123.425 221.596 122.081 219.2 121.2C214.846 119.599 214.846 119.599 204.829 129.768ZM117.698 162.373C112.374 175.079 112.313 174.446 119.136 177.214C126.498 180.201 126.327 180.275 137.213 169.413L146.806 159.842L132.79 159.823C118.774 159.804 118.774 159.804 117.698 162.373ZM201.566 166.7C205.276 170.493 210.07 174.946 212.217 176.596C216.082 179.566 216.148 179.587 218.704 178.673C221.558 177.653 226.797 175.066 228.025 174.071C228.606 173.6 228.084 171.636 226.044 166.618C223.274 159.804 223.274 159.804 209.047 159.804C194.82 159.804 194.82 159.804 201.566 166.7ZM150.939 184.386C141.574 193.897 141.574 193.897 143.088 198.6C145.599 206.397 146.388 207.756 148.404 207.761C149.384 207.763 152.543 206.804 155.423 205.629C160.662 203.493 160.662 203.493 160.662 189.184C160.662 181.314 160.581 174.875 160.484 174.875C160.386 174.875 156.091 179.155 150.939 184.386ZM181.095 188.918C181.276 203.304 181.276 203.304 186.684 205.498C194.335 208.602 195.428 208.511 196.723 204.656C197.297 202.951 198.375 200.771 199.118 199.813C201.534 196.7 199.452 193.211 188.732 182.411C180.912 174.533 180.912 174.533 181.095 188.918Z" fill="#A6D4F7"/>
</svg>
