<svg xmlns="http://www.w3.org/2000/svg" width="350" height="573" viewBox="0 0 350 573" version="1.1"><path d="M 68.500 358.529 C 66.300 359.321, 64.399 359.977, 64.276 359.985 C 64.152 359.993, 63.252 361.462, 62.276 363.250 C 60.630 366.262, 60.500 370.942, 60.500 427.177 C 60.500 486.972, 60.530 487.894, 62.571 490.677 C 68.641 498.951, 82.965 499.026, 87.974 490.810 C 89.863 487.712, 89.993 485.815, 89.996 461.250 L 90 435 85 435 L 80 435 80 459.566 C 80 474.587, 79.598 484.883, 78.965 486.066 C 78.377 487.163, 76.879 488, 75.500 488 C 74.121 488, 72.623 487.163, 72.035 486.066 C 71.356 484.796, 71 464.228, 71 426.221 C 71 371.388, 71.097 368.222, 72.829 366.655 C 75.279 364.438, 76.585 364.570, 78.443 367.223 C 79.737 369.069, 80 373.131, 80 391.223 L 80 413 85 413 L 90 413 89.996 389.750 C 89.993 368.194, 89.845 366.259, 87.974 363.190 C 84.475 357.449, 76.677 355.583, 68.500 358.529 M 213.055 358.337 C 211.161 359.055, 208.686 360.880, 207.555 362.393 C 205.543 365.087, 205.494 366.398, 205.215 424.823 C 204.889 493.038, 204.744 491.618, 212.372 495.082 C 219.608 498.367, 228.128 497.014, 232.436 491.894 L 235 488.847 235 427.328 C 235 359.868, 235.164 361.767, 229.085 358.990 C 225.181 357.206, 216.930 356.871, 213.055 358.337 M 108.502 360.140 C 108.216 360.888, 108.099 391.425, 108.241 428 L 108.500 494.500 113.736 494.802 L 118.973 495.104 119.236 461.802 L 119.500 428.500 122 428.758 C 123.375 428.901, 125.287 429.963, 126.250 431.119 C 127.826 433.013, 128 436.038, 128 461.546 C 128 477.529, 128.425 490.987, 128.975 492.435 C 129.835 494.697, 130.518 495, 134.754 495 L 139.557 495 139.271 481.750 C 139.113 474.462, 138.875 460.131, 138.742 449.902 C 138.473 429.200, 138.393 428.934, 131.581 426.041 L 127.646 424.370 132.073 421.402 C 138.329 417.208, 138.881 414.874, 138.920 392.500 C 138.957 370.743, 138.328 366.866, 134.065 362.604 C 131.069 359.607, 130.722 359.522, 120.007 359.156 C 111.402 358.861, 108.909 359.074, 108.502 360.140 M 156 394.965 L 156 430.930 159.178 434.550 C 162.130 437.912, 162.680 438.137, 166.928 437.713 C 169.443 437.462, 172.512 436.922, 173.750 436.512 L 176 435.767 176 460.683 C 176 478.730, 175.669 485.931, 174.800 486.800 C 172.963 488.637, 169.192 488.228, 168.035 486.066 C 167.425 484.926, 167 476.296, 167 465.066 L 167 446 161.500 446 L 156 446 156 466.040 C 156 483.956, 156.207 486.486, 157.956 489.914 C 161.365 496.595, 171.224 498.897, 179.788 495.010 C 187.270 491.614, 187 494.325, 187 422.480 L 187 358.895 181.750 359.198 L 176.500 359.500 176 393 C 175.725 411.425, 175.136 427.063, 174.691 427.750 C 173.572 429.478, 170.458 429.315, 168.571 427.429 C 167.206 426.063, 167 421.485, 167 392.429 L 167 359 161.500 359 L 156 359 156 394.965 M 217.750 366.080 C 216.114 367.033, 216 370.976, 216 426.350 C 216 471.100, 216.294 485.894, 217.200 486.800 C 219.037 488.637, 222.808 488.228, 223.965 486.066 C 224.644 484.796, 225 464.228, 225 426.221 C 225 371.388, 224.903 368.222, 223.171 366.655 C 221.072 364.755, 220.186 364.661, 217.750 366.080 M 119.451 368.268 C 119.183 368.965, 119.085 380.778, 119.232 394.518 C 119.499 419.361, 119.512 419.502, 121.689 419.811 C 122.908 419.985, 124.790 419.210, 125.939 418.061 C 127.897 416.103, 128 414.888, 128 393.723 C 128 375.178, 127.739 371.073, 126.443 369.223 C 124.748 366.802, 120.249 366.188, 119.451 368.268" stroke="none" fill="#0c43aa" fill-rule="evenodd"/><path d="M 142.229 30.646 C 139.885 31.632, 138 36.854, 138 42.363 L 138 47.825 132.750 44.931 C 125.597 40.987, 120.993 41.031, 117.589 45.077 C 114.258 49.035, 114.115 54.208, 117.250 57.335 C 118.487 58.569, 123.662 61.980, 128.750 64.914 L 138 70.249 138 85.124 C 138 93.306, 137.634 100, 137.187 100 C 136.740 100, 134.145 98.924, 131.420 97.610 C 128.695 96.295, 124.633 94.671, 122.395 94 C 116.550 92.249, 112.623 94.466, 109.434 101.315 C 108.106 104.167, 107.015 107.011, 107.010 107.636 C 107.004 108.260, 106.360 110.005, 105.578 111.513 L 104.155 114.255 94.078 104.078 C 88.535 98.481, 84.016 93.361, 84.036 92.701 C 84.067 91.630, 85.185 86.971, 88.041 76 C 90.499 66.557, 87.426 60.975, 79.798 61.032 C 73.970 61.075, 72.238 62.684, 69.604 70.504 L 67.356 77.179 63.566 73.498 C 58.651 68.725, 55.102 67.481, 50.619 68.961 C 48.001 69.825, 46.803 71.036, 45.606 74.027 C 43.690 78.816, 44.469 81.373, 49.457 86.660 C 51.406 88.726, 53 90.688, 53 91.019 C 53 91.351, 50.648 92.225, 47.772 92.962 C 44.627 93.768, 41.391 95.456, 39.647 97.199 C 37.138 99.708, 36.822 100.637, 37.290 104.126 C 38.477 112.973, 43.022 114.247, 58.500 110.072 L 69.500 107.105 79.750 117.285 C 85.388 122.883, 90 127.775, 90 128.155 C 90 128.534, 88.313 129.396, 86.250 130.069 C 77.022 133.081, 71.777 136.290, 70.298 139.829 C 68.698 143.658, 69.529 146.967, 74.676 157.276 L 77.060 162.052 61.861 161.776 L 46.663 161.500 41.581 152.691 C 34.542 140.488, 33.070 139, 28.030 139 C 23.420 139, 19.550 141.962, 18.454 146.329 C 17.805 148.914, 19.755 154.172, 23.246 159.250 L 25.136 162 18.491 162 C 12.480 162, 11.567 162.279, 8.923 164.923 C 4.986 168.860, 4.807 174.990, 8.528 178.438 C 11.194 180.910, 18.583 182.585, 22.013 181.496 C 24.689 180.647, 24.526 181.726, 21.018 188.090 C 17.506 194.463, 17.342 196.408, 19.956 200.696 C 21.347 202.976, 22.925 204.083, 25.469 204.560 C 31.616 205.713, 33.949 203.898, 40.378 192.961 C 43.610 187.460, 46.647 182.718, 47.126 182.422 C 47.605 182.126, 54.297 181.798, 61.998 181.692 C 74.844 181.516, 76 181.647, 76 183.285 C 76 184.267, 75.331 186.091, 74.514 187.339 C 71.545 191.869, 69.283 200.332, 70.160 203.624 C 71.221 207.607, 71.819 208.042, 81.750 212.058 C 86.287 213.892, 90 215.642, 90 215.947 C 90 216.251, 85.359 221.120, 79.688 226.766 L 69.377 237.031 61.438 234.463 C 57.072 233.050, 51.163 231.633, 48.307 231.313 C 43.487 230.774, 42.895 230.951, 40.057 233.789 C 37.832 236.014, 37 237.783, 37 240.288 C 37 245.385, 40.010 248.487, 46.984 250.576 C 50.293 251.568, 53 252.655, 53 252.993 C 53 253.331, 51.433 255.126, 49.519 256.982 C 42.999 263.301, 42.958 270.122, 49.414 274.352 C 54.068 277.401, 58.242 276.020, 64.702 269.293 C 65.913 268.032, 67.119 267, 67.381 267 C 67.644 267, 68.604 269.587, 69.515 272.750 C 71.332 279.056, 73.929 282.514, 77.525 283.417 C 82.672 284.709, 88.906 279.903, 88.967 274.597 C 88.985 273, 87.776 266.808, 86.280 260.836 L 83.560 249.977 93.511 239.989 C 98.984 234.495, 103.775 230, 104.156 230 C 104.537 230, 106.314 233.881, 108.104 238.624 C 110.653 245.378, 112.025 247.654, 114.429 249.120 C 118.542 251.628, 119.255 251.549, 129 247.500 C 133.634 245.575, 137.554 244, 137.712 244 C 137.871 244, 138 250.772, 138 259.048 L 138 274.097 135.250 275.302 C 129.431 277.853, 118.017 285.138, 116.544 287.241 C 114.015 290.851, 114.585 295.739, 117.923 299.077 C 121.750 302.904, 125.507 302.860, 132.515 298.905 L 138 295.809 138 301.003 C 138 309.759, 141.866 315, 148.325 315 C 153.614 315, 158.249 308.597, 157.977 301.664 C 157.888 299.374, 157.856 297.120, 157.907 296.655 C 157.958 296.190, 160.468 297.202, 163.485 298.905 C 170.103 302.640, 173.931 302.823, 177.694 299.587 C 180.024 297.583, 180.500 296.380, 180.500 292.500 C 180.500 286.824, 179.045 285.367, 166.605 278.586 L 158 273.895 158 258.841 C 158 247.193, 158.283 243.901, 159.250 244.293 C 159.938 244.572, 164.262 246.284, 168.859 248.099 L 177.219 251.399 180.826 249.449 C 183.906 247.785, 184.912 246.271, 187.700 239.100 C 189.496 234.481, 191.162 230.505, 191.401 230.266 C 191.640 230.027, 196.404 234.482, 201.989 240.166 L 212.143 250.500 210.439 257 C 205.910 274.276, 206.063 278.849, 211.277 282.027 C 215.412 284.549, 216.956 284.504, 221.048 281.746 C 223.690 279.966, 224.781 278.172, 226.245 273.204 L 228.097 266.915 232.715 270.980 C 238.171 275.783, 240.952 276.677, 245.097 274.960 C 252.354 271.954, 252.953 263.608, 246.393 256.890 C 244.323 254.771, 242.826 252.867, 243.065 252.659 C 243.304 252.451, 246.068 251.487, 249.207 250.517 C 256.504 248.262, 258.500 246.070, 258.500 240.308 C 258.500 236.638, 257.992 235.390, 255.694 233.413 C 252.031 230.262, 248.785 230.344, 236.500 233.897 L 226.500 236.790 215.737 226.149 C 209.805 220.284, 205.541 215.340, 206.237 215.132 C 206.932 214.925, 211.173 213.199, 215.662 211.297 C 222.201 208.526, 224.066 207.254, 225.040 204.903 C 226.587 201.168, 225.760 196.073, 222.536 189.484 C 218.481 181.196, 218.059 181.478, 234.250 181.661 L 248.500 181.821 250.500 184.810 C 251.600 186.453, 254.431 191.237, 256.792 195.440 C 261.460 203.752, 264.023 205.557, 269.839 204.629 C 274.099 203.950, 275.633 202.643, 276.988 198.537 C 277.932 195.675, 277.712 194.449, 275.340 189.367 C 273.833 186.140, 272.450 183.228, 272.266 182.896 C 272.082 182.564, 274.653 182.008, 277.979 181.660 C 285.519 180.872, 288.749 178.854, 289.583 174.409 C 291.099 166.329, 286.607 162.010, 276.682 162.004 L 270.864 162 272.736 159.250 C 273.766 157.738, 275.432 154.603, 276.440 152.285 C 278.011 148.670, 278.091 147.633, 276.998 144.995 C 275.295 140.884, 272.366 139, 267.679 139 C 262.755 139, 260.057 141.776, 254.141 152.929 C 251.744 157.448, 249.248 161.351, 248.595 161.602 C 247.942 161.852, 241.045 161.932, 233.268 161.779 L 219.129 161.500 222.261 155 C 224.514 150.325, 225.408 147.010, 225.447 143.193 C 225.511 136.761, 224.074 135.373, 213.216 131.383 C 209.209 129.911, 206.059 128.333, 206.216 127.875 C 206.902 125.869, 226.517 106.985, 227.517 107.368 C 228.128 107.602, 233.434 109.021, 239.308 110.521 C 248.592 112.891, 250.388 113.082, 253.042 111.983 C 258.634 109.666, 260.659 102.379, 257.002 97.729 C 255.068 95.271, 247.543 92, 243.822 92 C 241.127 92, 241.590 90.977, 246.533 86.013 C 250.177 82.353, 251 80.858, 251 77.898 C 251 73.211, 247.889 69.257, 243.562 68.446 C 239.590 67.701, 236.864 68.933, 231.818 73.755 L 228.135 77.274 226.454 71.387 C 224.173 63.396, 221.826 61, 216.280 61 C 212.973 61, 211.312 61.597, 209.455 63.455 C 206.305 66.605, 206.309 69.976, 209.481 82.053 C 210.846 87.249, 211.971 91.960, 211.981 92.523 C 211.998 93.437, 198.520 107.688, 193.271 112.306 C 191.240 114.093, 191.188 114.034, 188.445 106.806 C 184.898 97.462, 183.583 95.484, 179.899 93.958 C 176.424 92.519, 171.735 93.588, 163.713 97.648 C 161.079 98.981, 158.604 99.875, 158.213 99.634 C 157.821 99.393, 157.725 92.582, 158 84.497 L 158.500 69.798 163 67.296 C 174.462 60.924, 179.203 57.597, 180.068 55.321 C 181.701 51.025, 181.114 47.961, 178.077 44.923 C 174.185 41.031, 169.706 41.046, 163.044 44.974 C 160.270 46.610, 157.960 47.622, 157.911 47.224 C 157.862 46.826, 157.890 44.470, 157.973 41.989 C 158.081 38.736, 157.469 36.505, 155.778 33.989 C 153.670 30.853, 152.931 30.480, 148.466 30.306 C 145.735 30.199, 142.928 30.353, 142.229 30.646 M 123.740 117.750 C 123.468 118.713, 122.325 121.793, 121.199 124.595 L 119.151 129.690 128.576 139.075 L 138 148.460 138 134.861 L 138 121.261 131.934 118.631 C 124.756 115.517, 124.381 115.477, 123.740 117.750 M 163.804 118.638 L 158.108 121.239 157.804 134.206 C 157.637 141.338, 157.642 147.314, 157.815 147.485 C 157.989 147.657, 162.301 143.680, 167.399 138.649 L 176.667 129.500 174.333 124.126 C 173.050 121.170, 172 118.132, 172 117.376 C 172 115.416, 170.284 115.681, 163.804 118.638 M 99.500 145.566 C 96.750 146.891, 93.938 147.980, 93.250 147.987 C 91.558 148.005, 91.587 148.132, 94.937 155.522 L 97.875 162 111.168 162 L 124.460 162 115 152.500 C 109.797 147.275, 105.306 143.035, 105.020 143.079 C 104.734 143.122, 102.250 144.241, 99.500 145.566 M 181 152.500 L 171.540 162 184.744 162 L 197.949 162 199.500 158.999 C 200.354 157.349, 201.608 154.311, 202.287 152.249 L 203.521 148.500 197.039 145.750 C 193.474 144.238, 190.536 143, 190.509 143 C 190.482 143, 186.203 147.275, 181 152.500 M 110.260 181.781 C 96.536 182.095, 97.763 181.392, 93.635 191.315 L 92.047 195.131 97.552 197.565 C 100.580 198.904, 103.842 200, 104.801 200 C 106.754 200, 123.448 183.702, 122.870 182.359 C 122.666 181.886, 116.992 181.626, 110.260 181.781 M 171.999 182.021 C 172.001 183.355, 189.730 200, 191.149 200 C 192.034 200, 195.271 198.850, 198.342 197.444 L 203.925 194.888 201.409 189.194 C 200.025 186.062, 198.538 183.143, 198.103 182.707 C 197.239 181.839, 171.998 181.176, 171.999 182.021 M 128.729 204.770 C 123.928 209.593, 120 214.262, 120 215.145 C 120 216.029, 121.112 219.265, 122.470 222.337 L 124.941 227.923 128.720 226.389 C 130.799 225.545, 133.738 224.327, 135.250 223.683 L 138 222.512 138 209.256 C 138 201.965, 137.878 196, 137.729 196 C 137.580 196, 133.530 199.946, 128.729 204.770 M 157.810 208.419 C 157.639 215.451, 157.751 221.608, 158.059 222.101 C 158.366 222.595, 161.410 224.093, 164.824 225.431 L 171.030 227.863 172.362 224.675 C 173.095 222.922, 174.309 219.789, 175.059 217.713 L 176.424 213.938 167.272 204.785 L 158.120 195.633 157.810 208.419 M 70.500 355.491 C 69.950 355.675, 68.244 356.103, 66.709 356.442 C 64.822 356.859, 62.961 358.568, 60.959 361.725 L 58 366.392 58 427.048 L 58 487.704 60.250 491.010 C 63.525 495.823, 67.166 498.152, 72.323 498.733 C 82.518 499.882, 89.830 495.704, 91.881 487.558 C 93.053 482.905, 93.492 437.446, 92.393 434.582 C 91.643 432.627, 80.084 432.316, 78.200 434.200 C 77.330 435.070, 77 442.356, 77 460.700 C 77 481.646, 76.761 486, 75.608 486 C 74.843 486, 73.945 484.919, 73.614 483.597 C 72.849 480.552, 72.882 373.318, 73.648 370.266 C 73.961 369.020, 74.843 368, 75.608 368 C 76.755 368, 77 371.861, 77 389.918 C 77 401.973, 77.273 412.548, 77.607 413.418 C 78.078 414.646, 79.735 415, 85 415 C 90.265 415, 91.922 414.646, 92.393 413.418 C 93.461 410.636, 93.042 370.695, 91.901 366.500 C 89.885 359.084, 83.694 354.902, 75 355.085 C 73.075 355.125, 71.050 355.308, 70.500 355.491 M 213.209 355.926 C 209.151 356.960, 206.618 359.178, 204.571 363.492 C 203.197 366.387, 203 374.358, 203 427.015 C 203 487.109, 203.004 487.235, 205.189 491.123 C 207.986 496.099, 210.886 497.962, 216.953 498.681 C 227.289 499.905, 234.671 495.867, 236.911 487.764 C 237.771 484.654, 238.010 467.515, 237.795 424.426 L 237.500 365.352 235.018 361.731 C 233.653 359.739, 231.403 357.587, 230.018 356.949 C 226.728 355.432, 217.381 354.863, 213.209 355.926 M 68.500 358.529 C 66.300 359.321, 64.399 359.977, 64.276 359.985 C 64.152 359.993, 63.252 361.462, 62.276 363.250 C 60.630 366.262, 60.500 370.942, 60.500 427.177 C 60.500 486.972, 60.530 487.894, 62.571 490.677 C 68.641 498.951, 82.965 499.026, 87.974 490.810 C 89.863 487.712, 89.993 485.815, 89.996 461.250 L 90 435 85 435 L 80 435 80 459.566 C 80 474.587, 79.598 484.883, 78.965 486.066 C 78.377 487.163, 76.879 488, 75.500 488 C 74.121 488, 72.623 487.163, 72.035 486.066 C 71.356 484.796, 71 464.228, 71 426.221 C 71 371.388, 71.097 368.222, 72.829 366.655 C 75.279 364.438, 76.585 364.570, 78.443 367.223 C 79.737 369.069, 80 373.131, 80 391.223 L 80 413 85 413 L 90 413 89.996 389.750 C 89.993 368.194, 89.845 366.259, 87.974 363.190 C 84.475 357.449, 76.677 355.583, 68.500 358.529 M 107 427.046 L 107 497.091 113.750 496.796 L 120.500 496.500 120.763 463.250 C 120.908 444.962, 121.401 430, 121.858 430 C 122.316 430, 123.435 430.823, 124.345 431.829 C 125.800 433.436, 126.012 437.161, 126.100 462.579 C 126.155 478.485, 126.511 492.625, 126.892 494 C 127.534 496.321, 128.081 496.521, 134.542 496.789 L 141.500 497.079 141.163 464.822 C 140.802 430.171, 140.597 428.748, 135.485 425.398 L 133.012 423.778 135.531 421.797 C 140.386 417.978, 141 414.566, 141 391.398 C 141 366.246, 140.349 363.461, 133.542 359.472 C 129.738 357.242, 128.230 357, 118.162 357 L 107 357 107 427.046 M 154.450 358.269 C 154.163 359.018, 154.056 376.114, 154.214 396.261 L 154.500 432.891 158 436.531 C 161.409 440.077, 161.663 440.162, 167.768 439.787 L 174.036 439.403 173.768 462.451 C 173.509 484.744, 173.434 485.500, 171.500 485.500 C 169.581 485.500, 169.480 484.667, 169 465 L 168.500 444.500 161.500 444.500 L 154.500 444.500 154.220 465 C 153.903 488.170, 154.695 492.219, 160.328 496.237 C 162.994 498.139, 164.789 498.500, 171.578 498.500 C 178.868 498.500, 180.011 498.229, 183.296 495.724 C 185.573 493.987, 187.338 491.554, 188.012 489.224 C 188.744 486.690, 188.994 465.055, 188.794 421.500 L 188.500 357.500 181.500 357.500 L 174.500 357.500 174.237 391.750 L 173.974 426 171.500 426 L 169.026 426 168.763 391.750 L 168.500 357.500 161.736 357.204 C 156.740 356.985, 154.836 357.264, 154.450 358.269 M 213.055 358.337 C 211.161 359.055, 208.686 360.880, 207.555 362.393 C 205.543 365.087, 205.494 366.398, 205.215 424.823 C 204.889 493.038, 204.744 491.618, 212.372 495.082 C 219.608 498.367, 228.128 497.014, 232.436 491.894 L 235 488.847 235 427.328 C 235 359.868, 235.164 361.767, 229.085 358.990 C 225.181 357.206, 216.930 356.871, 213.055 358.337 M 108.502 360.140 C 108.216 360.888, 108.099 391.425, 108.241 428 L 108.500 494.500 113.736 494.802 L 118.973 495.104 119.236 461.802 L 119.500 428.500 122 428.758 C 123.375 428.901, 125.287 429.963, 126.250 431.119 C 127.826 433.013, 128 436.038, 128 461.546 C 128 477.529, 128.425 490.987, 128.975 492.435 C 129.835 494.697, 130.518 495, 134.754 495 L 139.557 495 139.271 481.750 C 139.113 474.462, 138.875 460.131, 138.742 449.902 C 138.473 429.200, 138.393 428.934, 131.581 426.041 L 127.646 424.370 132.073 421.402 C 138.329 417.208, 138.881 414.874, 138.920 392.500 C 138.957 370.743, 138.328 366.866, 134.065 362.604 C 131.069 359.607, 130.722 359.522, 120.007 359.156 C 111.402 358.861, 108.909 359.074, 108.502 360.140 M 156 394.965 L 156 430.930 159.178 434.550 C 162.130 437.912, 162.680 438.137, 166.928 437.713 C 169.443 437.462, 172.512 436.922, 173.750 436.512 L 176 435.767 176 460.683 C 176 478.730, 175.669 485.931, 174.800 486.800 C 172.963 488.637, 169.192 488.228, 168.035 486.066 C 167.425 484.926, 167 476.296, 167 465.066 L 167 446 161.500 446 L 156 446 156 466.040 C 156 483.956, 156.207 486.486, 157.956 489.914 C 161.365 496.595, 171.224 498.897, 179.788 495.010 C 187.270 491.614, 187 494.325, 187 422.480 L 187 358.895 181.750 359.198 L 176.500 359.500 176 393 C 175.725 411.425, 175.136 427.063, 174.691 427.750 C 173.572 429.478, 170.458 429.315, 168.571 427.429 C 167.206 426.063, 167 421.485, 167 392.429 L 167 359 161.500 359 L 156 359 156 394.965 M 217.750 366.080 C 216.114 367.033, 216 370.976, 216 426.350 C 216 471.100, 216.294 485.894, 217.200 486.800 C 219.037 488.637, 222.808 488.228, 223.965 486.066 C 224.644 484.796, 225 464.228, 225 426.221 C 225 371.388, 224.903 368.222, 223.171 366.655 C 221.072 364.755, 220.186 364.661, 217.750 366.080 M 119.451 368.268 C 119.183 368.965, 119.085 380.778, 119.232 394.518 C 119.499 419.361, 119.512 419.502, 121.689 419.811 C 122.908 419.985, 124.790 419.210, 125.939 418.061 C 127.897 416.103, 128 414.888, 128 393.723 C 128 375.178, 127.739 371.073, 126.443 369.223 C 124.748 366.802, 120.249 366.188, 119.451 368.268 M 219.160 368.240 C 218.307 369.093, 218 384.422, 218 426.118 C 218 457.313, 218.273 483.548, 218.607 484.418 C 218.941 485.288, 219.841 486, 220.607 486 C 221.782 486, 222 476.772, 222 427.059 C 222 394.641, 221.622 367.884, 221.160 367.599 C 220.698 367.313, 219.798 367.602, 219.160 368.240 M 121 393.500 C 121 406.975, 121.255 418, 121.566 418 C 121.877 418, 123.002 417.534, 124.066 416.965 C 125.889 415.989, 126 414.654, 126 393.665 C 126 371.215, 125.668 369, 122.300 369 C 121.269 369, 121 374.064, 121 393.500" stroke="none" fill="#3c90d2" fill-rule="evenodd"/></svg>